<svg width="1024" height="1024" viewBox="0 0 1024 1024" xmlns="http://www.w3.org/2000/svg">
  <rect width="1024" height="1024" rx="224" fill="#E23744"/>
  <path d="M512 150c-196 0-354 150-354 338 0 247 354 474 354 474s354-227 354-474c0-188-158-338-354-338Z" fill="#fff"/>
  <path d="M324 596h376c-20 89-95 150-188 150s-168-61-188-150Z" fill="#E23744"/>
  <path d="M386 530h252" stroke="#E23744" stroke-width="54" stroke-linecap="round"/>
  <path d="M424 464c-42-42 25-58-6-97M512 464c-42-42 25-58-6-97M600 464c-42-42 25-58-6-97" fill="none" stroke="#E23744" stroke-width="38" stroke-linecap="round"/>
</svg>
